<svg xmlns="http://www.w3.org/2000/svg" width="61.78" height="40.746" viewBox="0 0 61.78 40.746">
  <g id="noun-fast-235437" transform="translate(-82.137 -124.989)">
    <path id="Path_92" data-name="Path 92" d="M277.029,124.989a1.533,1.533,0,0,0-1.533,1.533v7.853a1.533,1.533,0,1,0,3.066,0v-6.253a17.306,17.306,0,1,1-11.727,3.252,1.533,1.533,0,0,0-1.808-2.476,20.374,20.374,0,1,0,12-3.909Z" transform="translate(-153.484)" fill="#466eb5"/>
    <path id="Path_93" data-name="Path 93" d="M339,240.712a1.532,1.532,0,0,0,.553,2.1l8.557,4.984a1.533,1.533,0,1,0,1.543-2.648l-8.557-4.984a1.532,1.532,0,0,0-2.1.553Z" transform="translate(-225.718 -101.106)" fill="#466eb5"/>
    <path id="Path_94" data-name="Path 94" d="M105.881,190.442h14.174a1.35,1.35,0,1,0,0-2.7H105.881a1.35,1.35,0,1,0,0,2.7Z" transform="translate(-19.695 -55.19)" fill="#466eb5"/>
    <path id="Path_95" data-name="Path 95" d="M83.487,250.1H97.661a1.35,1.35,0,0,0,0-2.7H83.487a1.35,1.35,0,1,0,0,2.7Z" transform="translate(0 -107.659)" fill="#466eb5"/>
    <path id="Path_96" data-name="Path 96" d="M99.016,308.421a1.35,1.35,0,0,0-1.35-1.35H83.492a1.35,1.35,0,1,0,0,2.7H97.666A1.35,1.35,0,0,0,99.016,308.421Z" transform="translate(-0.004 -160.136)" fill="#466eb5"/>
    <path id="Path_97" data-name="Path 97" d="M121.416,368.081a1.35,1.35,0,0,0-1.35-1.35H105.892a1.35,1.35,0,1,0,0,2.7h14.174A1.349,1.349,0,0,0,121.416,368.081Z" transform="translate(-19.705 -212.606)" fill="#466eb5"/>
  </g>
</svg>
