<svg xmlns="http://www.w3.org/2000/svg" width="25" height="25" viewBox="0 0 25 25">
  <g id="noun-setting-6424725" transform="translate(-4 -4)">
    <path id="Path_2902" data-name="Path 2902" d="M28.071,14.125H26.949a10.474,10.474,0,0,0-1.381-3.334L26.362,10a.93.93,0,0,0,0-1.313L24.316,6.638a.929.929,0,0,0-1.313,0l-.793.793a10.488,10.488,0,0,0-3.334-1.38V4.929A.93.93,0,0,0,17.947,4H15.053a.93.93,0,0,0-.928.929V6.051a10.474,10.474,0,0,0-3.334,1.381L10,6.638a.929.929,0,0,0-1.313,0L6.638,8.684a.929.929,0,0,0,0,1.313l.793.794a10.487,10.487,0,0,0-1.38,3.334H4.929A.93.93,0,0,0,4,15.053v2.893a.93.93,0,0,0,.929.928H6.051a10.474,10.474,0,0,0,1.381,3.334L6.638,23a.929.929,0,0,0,0,1.313l2.046,2.046a.929.929,0,0,0,1.313,0l.794-.793a10.487,10.487,0,0,0,3.334,1.38v1.123a.93.93,0,0,0,.928.929h2.893a.93.93,0,0,0,.928-.929V26.949a10.474,10.474,0,0,0,3.334-1.381l.794.794a.929.929,0,0,0,1.313,0l2.046-2.046a.929.929,0,0,0,0-1.313l-.793-.794a10.487,10.487,0,0,0,1.38-3.334h1.123A.93.93,0,0,0,29,17.947V15.053A.93.93,0,0,0,28.071,14.125Zm.036,3.821a.034.034,0,0,1-.036.036H26.585a.447.447,0,0,0-.439.364,9.61,9.61,0,0,1-1.52,3.67.446.446,0,0,0,.053.567l1.051,1.051a.034.034,0,0,1,0,.051L23.685,25.73a.034.034,0,0,1-.051,0l-1.051-1.05a.446.446,0,0,0-.567-.053,9.621,9.621,0,0,1-3.67,1.519.447.447,0,0,0-.364.439v1.487a.034.034,0,0,1-.036.036H15.053a.034.034,0,0,1-.036-.036V26.585a.447.447,0,0,0-.364-.439,9.61,9.61,0,0,1-3.67-1.52.446.446,0,0,0-.567.053L9.366,25.73a.034.034,0,0,1-.051,0L7.27,23.685a.034.034,0,0,1,0-.051l1.05-1.051a.447.447,0,0,0,.053-.567,9.621,9.621,0,0,1-1.519-3.67.447.447,0,0,0-.439-.364H4.929a.034.034,0,0,1-.036-.036V15.053a.034.034,0,0,1,.036-.036H6.415a.447.447,0,0,0,.439-.364,9.61,9.61,0,0,1,1.52-3.67.446.446,0,0,0-.053-.567L7.27,9.366a.034.034,0,0,1,0-.051L9.315,7.27a.034.034,0,0,1,.051,0l1.051,1.05a.447.447,0,0,0,.567.053,9.621,9.621,0,0,1,3.67-1.519.447.447,0,0,0,.364-.439V4.929a.034.034,0,0,1,.036-.036h2.893a.034.034,0,0,1,.036.036V6.415a.447.447,0,0,0,.364.439,9.621,9.621,0,0,1,3.648,1.5.446.446,0,0,0,.589-.038L23.634,7.27a.034.034,0,0,1,.051,0L25.73,9.315a.034.034,0,0,1,0,.051l-1.05,1.051a.447.447,0,0,0-.053.567,9.621,9.621,0,0,1,1.519,3.67.447.447,0,0,0,.439.364h1.487a.034.034,0,0,1,.036.036Z" fill="#fff"/>
    <path id="Path_2903" data-name="Path 2903" d="M23.143,16a7.143,7.143,0,1,0,7.143,7.143A7.143,7.143,0,0,0,23.143,16Zm0,13.393a6.25,6.25,0,1,1,6.25-6.25A6.25,6.25,0,0,1,23.143,29.393Z" transform="translate(-6.643 -6.643)" fill="#fff"/>
  </g>
</svg>
