<svg xmlns="http://www.w3.org/2000/svg" width="61.78" height="64.01" viewBox="0 0 61.78 64.01">
  <g id="noun-simple-3094259" transform="translate(-148.962 -78.959)">
    <path id="Path_51" data-name="Path 51" d="M268.591,111.41H234.179a1.391,1.391,0,0,1-1.159-.713,1.214,1.214,0,0,1,0-1.337l17.206-29.776a1.3,1.3,0,0,1,1.159-.624,1.523,1.523,0,0,1,1.159.624L269.75,109.36a1.214,1.214,0,0,1,0,1.337,1.389,1.389,0,0,1-1.159.713ZM236.5,108.735h29.776L251.385,82.971Z" transform="translate(-70.507)" fill="#466eb5"/>
    <path id="Path_52" data-name="Path 52" d="M379.853,325.191H353.019a1.371,1.371,0,0,1-1.337-1.337V297.02a1.371,1.371,0,0,1,1.337-1.337h26.834a1.371,1.371,0,0,1,1.337,1.337v26.834a1.37,1.37,0,0,1-1.336,1.338Zm-25.5-2.675h24.16v-24.16h-24.16Z" transform="translate(-170.447 -182.222)" fill="#466eb5"/>
    <path id="Path_53" data-name="Path 53" d="M163.671,325.1a14.709,14.709,0,1,1,14.709-14.709A14.724,14.724,0,0,1,163.671,325.1Zm0-26.745a12.036,12.036,0,1,0,12.036,12.036A12.1,12.1,0,0,0,163.671,298.358Z" transform="translate(0 -182.223)" fill="#466eb5"/>
  </g>
</svg>
