<svg xmlns="http://www.w3.org/2000/svg" width="20.844" height="21.905" viewBox="0 0 20.844 21.905">
  <g id="noun-trophy-6613326" transform="translate(-3.154 -2.5)">
    <path id="Path_3322" data-name="Path 3322" d="M17.282,16.583a5.522,5.522,0,0,0,1.762-3.034L23.5,7.974a2.24,2.24,0,0,0-1.747-3.64h-1.53l.044-.352v0A1.323,1.323,0,0,0,18.96,2.5H8.192a1.324,1.324,0,0,0-1.31,1.483l.044.351H5.4a2.241,2.241,0,0,0-1.748,3.64l4.46,5.575A5.567,5.567,0,0,0,11.336,17.5v2.37a.971.971,0,0,1-.97.97,1.784,1.784,0,0,0-1.781,1.782V24a.405.405,0,0,0,.406.406h9.172A.405.405,0,0,0,18.567,24V22.624a1.784,1.784,0,0,0-1.782-1.782.971.971,0,0,1-.97-.97V17.494A5.453,5.453,0,0,0,17.282,16.583ZM23.043,5.958a1.4,1.4,0,0,1-.172,1.509h0l-3.6,4.5.853-6.819h1.631A1.4,1.4,0,0,1,23.043,5.958Zm-18.934,0A1.4,1.4,0,0,1,5.4,5.145H7.027l.853,6.82-3.6-4.5A1.4,1.4,0,0,1,4.109,5.958Zm4.761,7.3a1.553,1.553,0,0,1-.031-.178l-1.152-9.2a.516.516,0,0,1,.127-.4.5.5,0,0,1,.378-.17H18.96a.5.5,0,0,1,.378.171.515.515,0,0,1,.128.4l-.1.8h0L18.33,12.961l-.019.129a1.725,1.725,0,0,1-.035.195,4.787,4.787,0,0,1-9.406-.024Zm7.915,8.392a.972.972,0,0,1,.971.971v.97H9.4v-.97a.972.972,0,0,1,.97-.971,1.783,1.783,0,0,0,1.781-1.781V17.8c.093.025.189.036.283.056s.166.036.25.05a5.527,5.527,0,0,0,.895.082h0a5.525,5.525,0,0,0,.895-.082c.085-.014.168-.032.252-.05s.189-.031.282-.056v2.075A1.783,1.783,0,0,0,16.786,21.654Z" fill="#fff"/>
  </g>
</svg>
