<svg xmlns="http://www.w3.org/2000/svg" width="24" height="23.559" viewBox="0 0 24 23.559">
  <g id="noun-home-6433807" transform="translate(-1.588 -1.69)">
    <path id="Path_2901" data-name="Path 2901" d="M13.588,1.69a1.838,1.838,0,0,0-1.232.47L2.627,10.916a3.14,3.14,0,0,0-1.039,2.333V23.534A1.723,1.723,0,0,0,3.3,25.249H23.873a1.723,1.723,0,0,0,1.714-1.714V13.249a3.14,3.14,0,0,0-1.039-2.333L14.82,2.159A1.838,1.838,0,0,0,13.588,1.69Zm0,1.138a.7.7,0,0,1,.468.182l9.729,8.757a1.993,1.993,0,0,1,.661,1.482V23.534a.563.563,0,0,1-.571.571H17.159V16.677a1.723,1.723,0,0,0-1.714-1.714H11.73a1.723,1.723,0,0,0-1.714,1.714v7.429H3.3a.563.563,0,0,1-.571-.571V13.249a1.993,1.993,0,0,1,.661-1.482L13.12,3.01A.7.7,0,0,1,13.588,2.828ZM11.73,16.106h3.714a.563.563,0,0,1,.571.571v7.429H11.159V16.677A.563.563,0,0,1,11.73,16.106Z" transform="translate(0 0)" fill="#000634"/>
  </g>
</svg>
